<svg width="43" height="46" viewBox="0 0 43 46" fill="none" xmlns="http://www.w3.org/2000/svg">
<path d="M16.0005 38.0001C6.00049 41.0001 6.00049 33.0001 2.00049 32.0001M30.0005 44.0001V36.2601C30.0755 35.3064 29.9467 34.3477 29.6225 33.4477C29.2984 32.5477 28.7863 31.727 28.1205 31.0401C34.4005 30.3401 41.0005 27.9601 41.0005 17.0401C41 14.2478 39.9259 11.5625 38.0005 9.54012C38.9122 7.09713 38.8477 4.39682 37.8205 2.00012C37.8205 2.00012 35.4605 1.30012 30.0005 4.96012C25.4165 3.71776 20.5845 3.71776 16.0005 4.96012C10.5405 1.30012 8.18049 2.00012 8.18049 2.00012C7.15324 4.39682 7.08878 7.09713 8.00049 9.54012C6.06074 11.5775 4.98553 14.287 5.00049 17.1001C5.00049 27.9401 11.6005 30.3201 17.8805 31.1001C17.2225 31.7801 16.715 32.5909 16.3911 33.48C16.0672 34.369 15.9341 35.3163 16.0005 36.2601V44.0001" stroke="#FFD9D9" stroke-width="4" stroke-linecap="round" stroke-linejoin="round"/>
</svg>
