<svg width="44" height="44" viewBox="0 0 44 44" fill="none" xmlns="http://www.w3.org/2000/svg">
<path d="M41.7762 31.2185V37.0935C41.7785 37.6389 41.6644 38.1788 41.4413 38.6785C41.2181 39.1782 40.8908 39.6268 40.4804 39.9955C40.0699 40.3642 39.5854 40.6449 39.0577 40.8197C38.5301 40.9944 37.971 41.0593 37.4162 41.0102C31.2619 40.3554 25.3502 38.2962 20.1562 34.9981C15.3239 31.9914 11.2269 27.9798 8.15623 23.2481C4.77619 18.1392 2.67272 12.3226 2.01623 6.26936C1.96625 5.72781 2.03198 5.18201 2.20923 4.6667C2.38649 4.1514 2.67138 3.67787 3.04577 3.27628C3.42016 2.87469 3.87584 2.55383 4.38382 2.33413C4.89179 2.11443 5.44091 2.0007 5.99623 2.00019H11.9962C12.9668 1.99084 13.9078 2.32739 14.6438 2.94711C15.3797 3.56683 15.8604 4.42744 15.9962 5.36852C16.2495 7.24865 16.7191 9.0947 17.3962 10.8714C17.6653 11.5724 17.7236 12.3341 17.564 13.0665C17.4045 13.7988 17.034 14.4711 16.4962 15.0035L13.9562 17.4906C16.8033 22.3934 20.9491 26.4528 25.9562 29.2406L28.4962 26.7535C29.04 26.227 29.7265 25.8641 30.4745 25.708C31.2224 25.5518 32.0004 25.6088 32.7162 25.8723C34.5308 26.5353 36.4161 26.9951 38.3362 27.2431C39.3078 27.3773 40.195 27.8565 40.8293 28.5895C41.4636 29.3224 41.8006 30.2581 41.7762 31.2185Z" stroke="#4D0011" stroke-width="4" stroke-linecap="round" stroke-linejoin="round"/>
</svg>
